<svg width="99" height="99" viewBox="0 0 99 99" fill="none" xmlns="http://www.w3.org/2000/svg">
<circle cx="49.5" cy="49.5" r="49.5" fill="#373d50"/>
<path fill-rule="evenodd" clip-rule="evenodd" d="M76.9564 64.5705C79.7902 59.7752 81.4163 54.1816 81.4163 48.2082C81.4163 30.4201 66.9962 16 49.2082 16C31.4201 16 17 30.4201 17 48.2082C17 65.9962 31.4201 80.4163 49.2082 80.4163C55.0792 80.4163 60.5834 78.8455 65.3232 76.1011L85.0002 84.1748L76.9564 64.5705ZM49.2082 60.8643C42.2184 60.8643 36.5521 55.1979 36.5521 48.2082C36.5521 41.2184 42.2184 35.5521 49.2082 35.5521C56.1979 35.5521 61.8643 41.2184 61.8643 48.2082C61.8643 55.1979 56.1979 60.8643 49.2082 60.8643Z" fill="#444961"/>
</svg>
