<svg width="99" height="99" fill="none" xmlns="http://www.w3.org/2000/svg"><circle cx="49.5" cy="49.5" r="49.5" fill="#373d50"/><path fill-rule="evenodd" clip-rule="evenodd" d="M76.956 64.57a32.058 32.058 0 0 0 4.46-16.362C81.416 30.42 66.996 16 49.208 16 31.42 16 17 30.42 17 48.208c0 17.788 14.42 32.208 32.208 32.208a32.06 32.06 0 0 0 16.115-4.315L85 84.175 76.956 64.57Zm-27.748-3.706c-6.99 0-12.656-5.666-12.656-12.656s5.666-12.656 12.656-12.656 12.656 5.666 12.656 12.656-5.666 12.656-12.656 12.656Z" fill="#444961"/></svg>