<?xml version="1.0" encoding="utf-8"?><svg xmlns="http://www.w3.org/2000/svg" xmlns:xlink="http://www.w3.org/1999/xlink"><symbol viewBox="0 0 256 256" id="icons--arrow-left" xmlns="http://www.w3.org/2000/svg"><path fill="none" d="M216 128H40M112 56l-72 72 72 72"/></symbol><symbol viewBox="0 0 256 256" id="icons--bag" xmlns="http://www.w3.org/2000/svg"><rect x="32" y="72" width="192" height="144" rx="8"/><path d="M168 216V56a16 16 0 0 0-16-16h-48a16 16 0 0 0-16 16v160"/></symbol><symbol fill="none" viewBox="0 0 99 99" id="icons--bg-order" xmlns="http://www.w3.org/2000/svg"><circle cx="49.5" cy="49.5" r="49.5" fill="#DADCE8"/><path fill-rule="evenodd" clip-rule="evenodd" d="M76.956 64.57a32.058 32.058 0 0 0 4.46-16.362C81.416 30.42 66.996 16 49.208 16 31.42 16 17 30.42 17 48.208c0 17.788 14.42 32.208 32.208 32.208a32.06 32.06 0 0 0 16.115-4.315L85 84.175 76.956 64.57Zm-27.748-3.706c-6.99 0-12.656-5.666-12.656-12.656s5.666-12.656 12.656-12.656 12.656 5.666 12.656 12.656-5.666 12.656-12.656 12.656Z" fill="#EDEDF5"/></symbol><symbol fill="none" viewBox="0 0 99 99" id="icons--bg-order-footer" xmlns="http://www.w3.org/2000/svg"><circle cx="49.5" cy="49.5" r="49.5" fill="#373d50"/><path fill-rule="evenodd" clip-rule="evenodd" d="M76.956 64.57a32.058 32.058 0 0 0 4.46-16.362C81.416 30.42 66.996 16 49.208 16 31.42 16 17 30.42 17 48.208c0 17.788 14.42 32.208 32.208 32.208a32.06 32.06 0 0 0 16.115-4.315L85 84.175 76.956 64.57Zm-27.748-3.706c-6.99 0-12.656-5.666-12.656-12.656s5.666-12.656 12.656-12.656 12.656 5.666 12.656 12.656-5.666 12.656-12.656 12.656Z" fill="#444961"/></symbol><symbol viewBox="0 0 256 256" id="icons--chats" xmlns="http://www.w3.org/2000/svg"><path d="M71.6 144 32 176V48a8 8 0 0 1 8-8h128a8 8 0 0 1 8 8v88a8 8 0 0 1-8 8Z"/><path d="M80 144v40a8 8 0 0 0 8 8h96.4l39.6 32V96a8 8 0 0 0-8-8h-40" fill="none"/></symbol><symbol viewBox="0 0 256 256" id="icons--clipboard" xmlns="http://www.w3.org/2000/svg"><path fill="none" d="M0 0h256v256H0z"/><path d="M160 40h40a8 8 0 0 1 8 8v168a8 8 0 0 1-8 8H56a8 8 0 0 1-8-8V48a8 8 0 0 1 8-8h40" fill="#6f768f" stroke="#6f768f" stroke-linecap="round" stroke-linejoin="round" stroke-width="16"/><path d="M88 72v-8a40 40 0 0 1 80 0v8Z" fill="#fff" stroke="#6f768f" stroke-linecap="round" stroke-linejoin="round" stroke-width="16"/></symbol><symbol viewBox="0 0 256 256" id="icons--compass" xmlns="http://www.w3.org/2000/svg"><path fill="none" d="M0 0h256v256H0z"/><circle cx="128" cy="128" r="96" fill="none" stroke="#edeef5" stroke-miterlimit="10" stroke-width="16"/><path fill="none" stroke="#edeef5" stroke-linecap="round" stroke-linejoin="round" stroke-width="16" d="m145 145 28.1-62.2L111 111l-25.4 59.4L145 145z"/></symbol><symbol viewBox="0 0 256 256" id="icons--facebook-logo" xmlns="http://www.w3.org/2000/svg"><circle cx="128" cy="128" r="96" fill="none"/><path d="M168 88h-16a23.9 23.9 0 0 0-24 24v112M96 144h64" fill="none"/></symbol><symbol viewBox="0 0 256 256" id="icons--files" xmlns="http://www.w3.org/2000/svg"><path fill="none" d="M0 0h256v256H0z"/><path d="M168 224H56a8 8 0 0 1-8-8V72a8 8 0 0 1 8-8h80l40 40v112a8 8 0 0 1-8 8Z" fill="#d0d5e5" stroke="#6f768f" stroke-linecap="round" stroke-linejoin="round" stroke-width="16"/><path d="M80 64V40a8 8 0 0 1 8-8h80l40 40v112a8 8 0 0 1-8 8h-24m-88-40h48m-48 32h48" fill="none" stroke="#6f768f" stroke-linecap="round" stroke-linejoin="round" stroke-width="16"/></symbol><symbol viewBox="0 0 256 256" id="icons--heart" xmlns="http://www.w3.org/2000/svg"><path fill="none" d="M0 0h256v256H0z"/><path d="M128 216S28 160 28 92a52 52 0 0 1 100-20h0a52 52 0 0 1 100 20c0 68-100 124-100 124Z" fill="none" stroke="#edeef5" stroke-linecap="round" stroke-linejoin="round" stroke-width="16"/></symbol><symbol viewBox="0 0 256 256" id="icons--info" xmlns="http://www.w3.org/2000/svg"><path fill="none" d="M0 0h256v256H0z"/><circle cx="128" cy="128" r="96" fill="#6f768f" stroke="#6f768f" stroke-linecap="round" stroke-linejoin="round" stroke-width="16"/><path fill="none" stroke="#edeef5" stroke-linecap="round" stroke-linejoin="round" stroke-width="16" d="M120 120h8v56h8"/><circle fill="#edeef5" cx="126" cy="84" r="12"/></symbol><symbol viewBox="0 0 256 256" id="icons--lifebuoy" xmlns="http://www.w3.org/2000/svg"><path fill="none" d="M0 0h256v256H0z"/><circle cx="128" cy="128" r="96" fill="none" stroke="#6f768f" stroke-linecap="round" stroke-linejoin="round" stroke-width="16"/><circle cx="128" cy="128" r="40" fill="none" stroke="#6f768f" stroke-linecap="round" stroke-linejoin="round" stroke-width="16"/><path fill="none" stroke="#6f768f" stroke-linecap="round" stroke-linejoin="round" stroke-width="16" d="M99.7 99.7 60.1 60.1m96.2 39.6 39.6-39.6m-39.6 96.2 39.6 39.6m-96.2-39.6-39.6 39.6"/></symbol><symbol viewBox="0 0 256 256" id="icons--linkedin-logo" xmlns="http://www.w3.org/2000/svg"><rect x="36" y="36" width="184" height="184" rx="8" fill="none"/><path fill="none" d="M120 112v64M88 112v64M120 140a28 28 0 0 1 56 0v36"/><circle cx="88" cy="80" r="12"/></symbol><symbol viewBox="0 0 256 256" id="icons--megaphone" xmlns="http://www.w3.org/2000/svg"><path d="M152 80v123.7a7.9 7.9 0 0 0 3.6 6.7l11 7.3a8 8 0 0 0 12.2-4.7l13.2-53"/><path d="M192 160a40 40 0 0 0 0-80h-40S97.5 80 45.1 36.1A8 8 0 0 0 32 42.2v155.6a8 8 0 0 0 13.1 6.1C97.5 160 152 160 152 160Z"/></symbol><symbol viewBox="0 0 256 256" id="icons--share" xmlns="http://www.w3.org/2000/svg"><path fill="none" d="M0 0h256v256H0z"/><circle cx="64" cy="128" r="32" fill="none" stroke="#edeef5" stroke-linecap="round" stroke-linejoin="round" stroke-width="16"/><circle cx="176" cy="200" r="32" fill="none" stroke="#edeef5" stroke-linecap="round" stroke-linejoin="round" stroke-width="16"/><circle cx="176" cy="56" r="32" fill="none" stroke="#edeef5" stroke-linecap="round" stroke-linejoin="round" stroke-width="16"/><path fill="none" stroke="#edeef5" stroke-linecap="round" stroke-linejoin="round" stroke-width="16" d="m149.1 73.3-58.2 37.4m0 34.6 58.2 37.4"/></symbol><symbol viewBox="0 0 256 256" id="icons--trash" xmlns="http://www.w3.org/2000/svg"><path fill="none" stroke="#fff" d="M0 0h256v256H0z"/><path d="M216 56H40M104 104v64M152 104v64M200 56v152a8 8 0 0 1-8 8H64a8 8 0 0 1-8-8V56M168 56V40a16 16 0 0 0-16-16h-48a16 16 0 0 0-16 16v16"/></symbol><symbol viewBox="0 0 256 256" id="icons--twitter-logo" xmlns="http://www.w3.org/2000/svg"><path d="M128 88c0-22 18.5-40.3 40.5-40a40 40 0 0 1 36.2 24H240l-32.3 32.3A127.9 127.9 0 0 1 80 224c-32 0-40-12-40-12s32-12 48-36c0 0-64-32-48-120 0 0 40 40 88 48Z" fill="none"/></symbol><symbol viewBox="0 0 256 256" id="icons--upload" xmlns="http://www.w3.org/2000/svg"><path fill="none" d="M0 0h256v256H0z"/><path d="M96 208H72a56 56 0 0 1 0-112 57.5 57.5 0 0 1 13.9 1.7" fill="none" stroke="#6f768f" stroke-linecap="round" stroke-linejoin="round" stroke-width="16"/><path d="M80 128a80 80 0 1 1 144 48" fill="none" stroke="#6f768f" stroke-linecap="round" stroke-linejoin="round" stroke-width="16"/><path fill="none" stroke="#6f768f" stroke-linecap="round" stroke-linejoin="round" stroke-width="16" d="M118.1 161.9 152 128l33.9 33.9M152 208v-80"/></symbol><symbol viewBox="0 0 256 256" id="icons--upload-active" xmlns="http://www.w3.org/2000/svg"><path fill="none" d="M0 0h256v256H0z"/><path d="M96 208H72a56 56 0 0 1 0-112 57.5 57.5 0 0 1 13.9 1.7" fill="none" stroke="#fff" stroke-linecap="round" stroke-linejoin="round" stroke-width="16"/><path d="M80 128a80 80 0 1 1 144 48" fill="none" stroke="#fff" stroke-linecap="round" stroke-linejoin="round" stroke-width="16"/><path fill="none" stroke="#fff" stroke-linecap="round" stroke-linejoin="round" stroke-width="16" d="M118.1 161.9 152 128l33.9 33.9M152 208v-80"/></symbol><symbol viewBox="0 0 256 256" id="icons--user-login" xmlns="http://www.w3.org/2000/svg"><circle cx="128" cy="96" r="64" fill="none"/><path d="M31 216a112 112 0 0 1 194 0" fill="none"/></symbol></svg>